<?xml version="1.0" encoding="iso-8859-1"?>
<!-- Generator: Adobe Illustrator 19.0.0, SVG Export Plug-In . SVG Version: 6.00 Build 0)  -->
<svg version="1.1" id="Layer_1" xmlns="http://www.w3.org/2000/svg" xmlns:xlink="http://www.w3.org/1999/xlink" x="0px" y="0px"
	 viewBox="0 0 512 512" style="enable-background:new 0 0 512 512;" xml:space="preserve">
<g>
	<g>
		<path d="M461.913,311.652h-55.652v-33.391h16.696c9.217,0,16.696-7.473,16.696-16.696c0-9.223-7.479-16.696-16.696-16.696
			c-35.489,0-31.136,0-50.087,0v-66.783h16.696c9.217,0,16.696-7.473,16.696-16.696c0-9.223-7.479-16.696-16.696-16.696h-18.008
			c-7.411-52.273-48.539-91.809-98.862-98.938V16.696C272.696,7.473,265.217,0,256,0c-9.217,0-16.696,7.473-16.696,16.696v29.117
			c-48.903,7.467-88.552,48.116-98.001,98.883h-18.868c-9.217,0-16.696,7.473-16.696,16.696c0,9.223,7.479,16.696,16.696,16.696
			h16.696v66.783c-25.647,0-8.427,0-50.087,0c-9.217,0-16.696,7.473-16.696,16.696c0,9.223,7.479,16.696,16.696,16.696h16.696
			v33.391H50.087C22.468,311.652,0,334.12,0,361.739v132.598C0,504.076,7.924,512,17.663,512c106.847,0,383.742,0,477.641,0
			c9.217,0,16.696-7.473,16.696-16.696V361.739C512,334.12,489.532,311.652,461.913,311.652z M174.831,478.609H139.13
			c0-113.335,0-86.624,0-200.348h35.701V478.609z M241.614,478.609H208V278.261h33.614V478.609z M205.913,244.87v-16.696
			c0-9.223,7.479-16.696,16.696-16.696s16.696,7.473,16.696,16.696v16.696H205.913z M308.397,478.609h-33.614V278.261h33.614
			V478.609z M272.696,244.87v-16.696c0-9.223,7.479-16.696,16.696-16.696s16.696,7.473,16.696,16.696v16.696H272.696z
			 M175.5,144.696c9.352-36.865,40.157-65.087,76.706-66.701c42.652-1.776,77.818,27.942,85.612,66.701H175.5z M372.87,478.609
			h-31.304V278.261h31.304C372.87,392.062,372.87,365.262,372.87,478.609z"/>
	</g>
</g>
<g>
</g>
<g>
</g>
<g>
</g>
<g>
</g>
<g>
</g>
<g>
</g>
<g>
</g>
<g>
</g>
<g>
</g>
<g>
</g>
<g>
</g>
<g>
</g>
<g>
</g>
<g>
</g>
<g>
</g>
</svg>
