<?xml version="1.0" encoding="iso-8859-1"?>
<!-- Generator: Adobe Illustrator 21.0.0, SVG Export Plug-In . SVG Version: 6.00 Build 0)  -->
<svg version="1.1" id="Capa_1" xmlns="http://www.w3.org/2000/svg" xmlns:xlink="http://www.w3.org/1999/xlink" x="0px" y="0px"
	 viewBox="0 0 602.672 602.672" style="enable-background:new 0 0 602.672 602.672;" xml:space="preserve">
<g>
	<g>
		<g>
			<g id="filled_outline_10_">
				<polygon style="fill:#9C5E3E;" points="10.045,291.291 10.045,331.469 10.045,592.627 50.223,592.627 50.223,331.469 
					552.449,331.469 552.449,592.627 592.627,592.627 592.627,331.469 592.627,291.291 				"/>
				<path style="fill:#87CED9;" d="M311.38,30.134c0-11.099-8.99-20.089-20.089-20.089H30.134c-11.099,0-20.089,8.99-20.089,20.089
					v160.712H311.38V30.134z"/>
				<path style="fill:#DADDDF;" d="M10.045,190.846v20.089c0,11.099,8.99,20.089,20.089,20.089h261.158
					c11.099,0,20.089-8.99,20.089-20.089v-20.089H10.045z"/>
				<polygon style="fill:#C7CACC;" points="110.49,291.291 210.935,291.291 190.846,231.024 130.579,231.024 				"/>
				<polygon style="fill:#DADDDF;" points="200.891,592.627 100.445,592.627 90.401,452.004 210.935,452.004 				"/>
				<path style="fill:#4398D1;" d="M351.558,210.935v170.757h-55.245c-13.871,0-25.111,11.24-25.111,25.111l0,0
					c0,13.871,11.24,25.111,25.111,25.111h215.957c22.188,0,40.178-17.99,40.178-40.178V210.935
					c0-22.188-17.99-40.178-40.178-40.178H391.737C369.548,170.757,351.558,188.747,351.558,210.935z"/>
				<path style="fill:#DADDDF;" d="M522.315,532.36l-60.267-10.044v-90.401H421.87v90.401l-60.267,10.044
					c-16.644,0-30.134,13.49-30.134,30.134s13.49,30.134,30.134,30.134c16.644,0,30.134-13.49,30.134-30.134l0,0h100.445
					c0,16.644,13.49,30.134,30.134,30.134s30.134-13.49,30.134-30.134S538.959,532.36,522.315,532.36L522.315,532.36z"/>
				<rect x="421.87" y="431.915" style="fill:#C7CACC;" width="40.178" height="20.089"/>
				<path style="fill:#71C4D1;" d="M291.291,10.045H266.18L85.378,190.846H311.38V30.134
					C311.38,19.034,302.39,10.045,291.291,10.045z"/>
				<path d="M592.627,281.247h-30.134v-70.312c-0.03-27.723-22.5-50.192-50.223-50.223H391.737
					c-27.723,0.03-50.193,22.5-50.223,50.223v70.312H218.167l-13.389-40.178h86.514c16.644,0,30.134-13.49,30.134-30.134V30.134
					C321.425,13.49,307.935,0,291.291,0H30.134C13.49,0,0,13.49,0,30.134v180.801c0,16.644,13.49,30.134,30.134,30.134h86.514
					l-13.389,40.178H10.045C4.5,281.247,0,285.747,0,291.291v301.336c0,5.545,4.5,10.045,10.045,10.045h40.178
					c5.545,0,10.045-4.5,10.045-10.045V341.514h281.247v30.134h-45.2c-19.416,0-35.156,15.74-35.156,35.156
					c0,19.416,15.74,35.156,35.156,35.156h115.512v71.848l-51.117,8.508c-22.188,0.492-39.766,18.884-39.274,41.062
					c0.492,22.188,18.884,39.766,41.062,39.274c17.98-0.402,33.498-12.706,37.998-30.114h82.908
					c4.6,17.729,20.591,30.114,38.902,30.134c7.403-0.02,14.655-2.109,20.933-6.027c1.607,3.656,5.223,6.027,9.211,6.027h40.178
					c5.545,0,10.044-4.5,10.044-10.045V291.291C602.672,285.747,598.172,281.247,592.627,281.247z M582.583,301.336v20.089h-20.089
					v-20.089H582.583z M472.093,441.959h40.178c10.898-0.04,21.495-3.656,30.134-10.306v96.257
					c-5.816-3.465-12.425-5.394-19.195-5.595l-51.117-8.508V441.959z M30.134,20.089h261.158c5.545,0,10.045,4.5,10.045,10.045
					v150.668H20.089V30.134C20.089,24.589,24.589,20.089,30.134,20.089z M20.089,210.935v-10.045h281.247v10.045
					c0,5.545-4.5,10.045-10.045,10.045H30.134C24.589,220.98,20.089,216.48,20.089,210.935z M137.821,241.069h45.783l13.389,40.178
					h-72.562L137.821,241.069z M40.178,582.583H20.089V341.514h20.089V582.583z M50.223,321.425H20.089v-20.089h321.425v20.089
					H50.223z M281.247,406.803c0-8.317,6.75-15.067,15.067-15.067h55.245c5.545,0,10.045-4.5,10.045-10.045V210.935
					c0-16.644,13.49-30.134,30.134-30.134h120.534c16.644,0,30.134,13.49,30.134,30.134v180.801
					c0,16.644-13.49,30.134-30.134,30.134H296.314C287.997,421.87,281.247,415.12,281.247,406.803z M522.315,582.583
					c-11.099,0-20.089-8.99-20.089-20.089c0-5.545-4.5-10.045-10.045-10.045H391.737c-5.545,0-10.045,4.5-10.045,10.045
					c0,11.099-8.99,20.089-20.089,20.089c-11.099,0-20.089-8.99-20.089-20.089s8.99-20.089,20.089-20.089
					c0.552,0,1.105-0.04,1.647-0.141l60.267-10.045c4.841-0.804,8.397-4.992,8.397-9.904v-80.356h20.089v80.356
					c0,4.912,3.556,9.1,8.397,9.904l60.267,10.045c0.542,0.1,1.095,0.141,1.647,0.141c11.099,0,20.089,8.99,20.089,20.089
					S533.415,582.583,522.315,582.583z M582.583,582.583h-20.089V341.514h20.089V582.583z"/>
				<path d="M100.445,602.672h100.445c5.283,0.01,9.673-4.068,10.045-9.331l10.045-140.623c0.392-5.535-3.777-10.336-9.301-10.728
					c-0.251-0.02-0.492-0.03-0.743-0.03H90.401c-5.545-0.01-10.055,4.47-10.075,10.014c0,0.251,0.01,0.492,0.03,0.743L90.401,593.34
					C90.772,598.604,95.162,602.682,100.445,602.672z M200.147,462.048l-8.608,120.534h-81.742l-8.608-120.534H200.147z"/>
			</g>
		</g>
	</g>
</g>
<g>
</g>
<g>
</g>
<g>
</g>
<g>
</g>
<g>
</g>
<g>
</g>
<g>
</g>
<g>
</g>
<g>
</g>
<g>
</g>
<g>
</g>
<g>
</g>
<g>
</g>
<g>
</g>
<g>
</g>
</svg>
