<svg height="569pt" viewBox="0 0 569 569.28603" width="569pt" xmlns="http://www.w3.org/2000/svg"><path d="m559.660156 265.535156h-28.449218v-66.386718c-.03125-26.171876-21.242188-47.382813-47.417969-47.414063h-113.800781c-26.175782.03125-47.382813 21.242187-47.414063 47.414063v66.386718h-116.457031l-12.640625-37.933594h81.679687c15.710938 0 28.449219-12.738281 28.449219-28.449218v-170.703125c0-15.710938-12.738281-28.449219-28.449219-28.449219h-246.566406c-15.714844 0-28.449219 12.738281-28.449219 28.449219v170.699219c0 15.714843 12.734375 28.449218 28.449219 28.449218h81.679688l-12.640626 37.933594h-88.007812c-5.234375 0-9.480469 4.246094-9.480469 9.484375v284.5c0 5.238281 4.246094 9.484375 9.480469 9.484375h37.933594c5.238281 0 9.484375-4.246094 9.484375-9.484375v-237.082031h265.53125v28.449218h-42.671875c-18.332032 0-33.191406 14.859376-33.191406 33.191407s14.859374 33.191406 33.191406 33.191406h109.058594v67.832031l-48.261719 8.035156c-20.945313.464844-37.546875 17.824219-37.078125 38.769532.46875 20.945312 17.828125 37.542968 38.769531 37.078125 16.976563-.378907 31.632813-11.992188 35.882813-28.433594h78.273437c4.34375 16.738281 19.4375 28.429687 36.730469 28.449219 6.988281-.015625 13.832031-1.988282 19.761718-5.6875 1.507813 3.453125 4.917969 5.6875 8.6875 5.6875h37.933594c5.234375 0 9.480469-4.242188 9.480469-9.480469v-284.5c.003906-5.234375-4.242187-9.480469-9.480469-9.480469zm-9.484375 18.964844v18.964844h-18.964843v-18.964844zm-104.316406 132.765625h37.933594c10.292969-.035156 20.289062-3.453125 28.449219-9.730469v90.878906c-5.492188-3.277343-11.730469-5.09375-18.121094-5.28125l-48.261719-8.03125zm-417.265625-398.300781h246.566406c5.238282 0 9.484375 4.246094 9.484375 9.484375v142.25h-265.535156v-142.25c0-5.238281 4.246094-9.484375 9.484375-9.484375zm-9.484375 180.183594v-9.480469h265.535156v9.480469c0 5.238281-4.246093 9.484374-9.484375 9.484374h-246.566406c-5.238281 0-9.484375-4.246093-9.484375-9.484374zm111.152344 28.449218h43.226562l12.640625 37.933594h-68.507812zm-92.1875 322.4375h-18.964844v-227.601562h18.964844zm9.484375-246.570312h-28.449219v-18.964844h303.464844v18.964844zm218.117187 80.609375c0-7.855469 6.371094-14.222657 14.226563-14.222657h52.15625c5.238281 0 9.484375-4.246093 9.484375-9.484374v-161.21875c0-15.710938 12.738281-28.449219 28.449219-28.449219h113.800781c15.710937 0 28.449219 12.738281 28.449219 28.449219v170.703124c0 15.710938-12.738282 28.449219-28.449219 28.449219h-203.890625c-7.855469 0-14.226563-6.371093-14.226563-14.226562zm227.601563 165.960937c-10.476563 0-18.96875-8.492187-18.96875-18.96875 0-5.238281-4.246094-9.484375-9.480469-9.484375h-94.835937c-5.238282 0-9.480469 4.246094-9.480469 9.484375 0 10.476563-8.492188 18.96875-18.96875 18.96875-10.472657 0-18.964844-8.492187-18.964844-18.96875 0-10.472656 8.492187-18.964844 18.964844-18.964844.523437.003907 1.042969-.042968 1.554687-.132812l56.902344-9.484375c4.570312-.761719 7.925781-4.714844 7.925781-9.351563v-75.867187h18.96875v75.867187c0 4.636719 3.355469 8.59375 7.925781 9.351563l56.902344 9.484375c.511719.089844 1.03125.136719 1.554688.132812 10.472656 0 18.964844 8.492188 18.964844 18.964844 0 10.476563-8.492188 18.96875-18.964844 18.96875zm56.898437 0h-18.964843v-227.601562h18.964843zm0 0"/><path d="m94.976562 569h94.832032c4.988281.011719 9.128906-3.835938 9.484375-8.808594l9.484375-132.765625c.371094-5.226562-3.5625-9.761719-8.785156-10.132812-.234376-.019531-.464844-.027344-.699219-.027344h-113.800781c-5.238282-.011719-9.492188 4.222656-9.507813 9.460937 0 .234376.007813.464844.027344.699219l9.480469 132.765625c.355468 4.972656 4.5 8.820313 9.484374 8.808594zm94.132813-132.765625-8.128906 113.800781h-77.175781l-8.125-113.800781zm0 0"/></svg>