<?xml version="1.0" encoding="iso-8859-1"?>
<!-- Generator: Adobe Illustrator 16.0.0, SVG Export Plug-In . SVG Version: 6.00 Build 0)  -->
<!DOCTYPE svg PUBLIC "-//W3C//DTD SVG 1.1//EN" "http://www.w3.org/Graphics/SVG/1.1/DTD/svg11.dtd">
<svg version="1.1" id="Capa_1" xmlns="http://www.w3.org/2000/svg" xmlns:xlink="http://www.w3.org/1999/xlink" x="0px" y="0px"
	 width="92.599px" height="92.599px" viewBox="0 0 92.599 92.599" style="enable-background:new 0 0 92.599 92.599;"
	 xml:space="preserve">
<g>
	<g>
		<path d="M24.419,30.714c0,3.422,2.784,6.206,6.206,6.206s6.206-2.784,6.206-6.206s-2.784-6.206-6.206-6.206
			S24.419,27.292,24.419,30.714z"/>
		<path d="M91.031,83.469c0,0-34.967-34.912-35.115-35.036c8.437-11.999,7.322-28.713-3.397-39.434
			c-11.995-11.998-31.52-11.998-43.52,0C-3,20.996-3,40.52,8.999,52.517C19.72,63.24,36.434,64.35,48.434,55.913
			c0.124,0.152,35.037,35.118,35.037,35.118c2.087,2.088,5.474,2.088,7.562,0C93.121,88.941,93.121,85.559,91.031,83.469z
			 M30.709,7.483c11.698,0,21.371,8.65,22.983,19.902c-4.116-3.372-12.793-9.287-23.022-9.287c-10.155,0-18.783,5.832-22.936,9.215
			C9.377,16.097,19.036,7.483,30.709,7.483z M43.392,30.714c0,2.791-0.912,5.361-2.439,7.463c-3.118,1.254-6.607,2.142-10.281,2.142
			c-3.724,0-7.26-0.91-10.411-2.191c-1.504-2.092-2.399-4.646-2.399-7.413c0-2.774,0.9-5.333,2.411-7.428
			c3.147-1.279,6.681-2.188,10.399-2.188c3.669,0,7.154,0.885,10.271,2.137C42.473,25.34,43.392,27.917,43.392,30.714z
			 M30.709,53.931c-11.672,0-21.33-8.612-22.974-19.828c4.15,3.383,12.778,9.215,22.935,9.215c10.229,0,18.905-5.915,23.022-9.287
			C52.078,45.281,42.406,53.931,30.709,53.931z"/>
	</g>
</g>
<g>
</g>
<g>
</g>
<g>
</g>
<g>
</g>
<g>
</g>
<g>
</g>
<g>
</g>
<g>
</g>
<g>
</g>
<g>
</g>
<g>
</g>
<g>
</g>
<g>
</g>
<g>
</g>
<g>
</g>
</svg>
