<?xml version="1.0" encoding="iso-8859-1"?>
<!-- Generator: Adobe Illustrator 19.0.0, SVG Export Plug-In . SVG Version: 6.00 Build 0)  -->
<svg version="1.1" id="Layer_1" xmlns="http://www.w3.org/2000/svg" xmlns:xlink="http://www.w3.org/1999/xlink" x="0px" y="0px"
	 viewBox="0 0 486.858 486.858" style="enable-background:new 0 0 486.858 486.858;" xml:space="preserve">
<g>
	<g>
		<path d="M459.7,310.029c-35.8-9.1-64.8-29.6-64.8-29.6l-22.7,71.7l-4.3,13.5l-0.1-0.2l-3.7,11.4l-12-33.9
			c29.4-41-5.9-40.6-7.9-40.5c-2-0.1-37.3-0.5-7.9,40.5l-12,33.9l-3.7-11.4l-0.1,0.2l-4.3-13.5l-22.7-71.7c0,0-29.1,20.5-64.8,29.6
			c-26.7,6.8-28,37.6-26.9,52.8c0,0,1.5,20.7,3.1,29.8c0,0,52,33.8,139.2,33.9c87.3-0.1,139.4-33.9,139.4-33.9
			c1.6-9.1,3.1-29.8,3.1-29.8C487.7,347.629,486.4,316.829,459.7,310.029z"/>
	</g>
</g>
<g>
	<g>
		<path d="M271.5,93.529c0.4-0.4,0.7-0.7,1.1-1.1c-29-20.8-63.8-32.1-100.2-32.1c-46.1-0.1-89.4,17.8-121.9,50.4
			c-32.6,32.6-50.5,75.8-50.5,121.9c0,46,17.9,89.3,50.5,121.9c32.6,32.6,75.8,50.5,121.9,50.5c2.3,0,4.6-0.1,6.9-0.1
			c-1.1-2.3-1.9-4.8-2.3-7.4c-1-5.7-1.9-14.6-2.5-21.6c-0.7,0-1.4,0-2.1,0c-4.5,0-9-0.2-13.5-0.6c-14.8-22.9-25.8-47.9-32.7-74H191
			c8-9.2,18.5-15.6,30.8-18.8c11.3-2.9,22-7.2,30.9-11.4c1.2-8.7,2-17.4,2.5-26.3c-0.5-0.8-1.1-1.5-1.6-2.4
			c-3.9-6.2-7.2-14-10.2-24.7c-3.5-12.5-7-30.4,1.9-45.1c-1.1-7.6-1.3-14.6-0.8-21.2c-5.2-18.1-12.1-35.6-20.7-52.4
			c11.2,4.3,21.6,10,31.2,16.8C259.3,107.929,264.8,100.429,271.5,93.529z M161.4,89.729c3.6-0.3,7.2-0.4,10.9-0.4
			c4.2,0,8.4,0.2,12.6,0.6c14.8,22.9,25.8,47.8,32.7,73.8h-90.4C134.6,137.529,146.1,112.629,161.4,89.729z M122.3,98.329
			c-11.1,20.7-19.5,42.7-25.2,65.4H46.8C63.2,133.829,90,110.429,122.3,98.329z M29.1,232.629c0-13.8,2-27.1,5.6-39.7h56.6
			c-2,13.7-3,27.5-3,41.5c0,12.7,0.8,25.2,2.4,37.6h-56C31.1,259.529,29.1,246.229,29.1,232.629z M46.7,301.229h49.5
			c5.3,22.4,13.3,44.1,23.8,64.7C88.6,353.529,62.7,330.429,46.7,301.229z M226.3,230.729c0,13.9-1.1,27.7-3.3,41.3H120.2
			c-1.8-12.4-2.7-25-2.7-37.6c0-14,1.1-27.9,3.3-41.5h102.8C225.4,205.329,226.3,218.029,226.3,230.729z"/>
	</g>
</g>
<g>
	<g>
		<path d="M409.7,184.029c1.1-3.2,2-6.3,2.5-9.5c9.9-59.7-19.4-61.8-19.4-61.8s-4.9-9.4-17.7-16.4c-8.5-5.1-20.5-9.1-36.3-7.7
			c-5.1,0.2-9.9,1.2-14.5,2.8c-5.8,2-11.1,4.8-15.9,8.2c-5.9,3.7-11.5,8.3-16.4,13.5c-7.8,7.9-14.7,18.2-17.7,31.1
			c-2.5,9.6-2,19.6,0.1,30.3c0.6,3.1,1.4,6.3,2.5,9.5c-5.9-0.6-12.8,2.9-6.3,25.9c4.8,16.8,9.2,21.6,12.6,21.8
			c3.1,20,18.5,45.5,43.9,54.5c10.4,3.7,21.9,3.7,32.2-0.1c25-9,41-34.4,44.1-54.4c3.4-0.3,7.8-5,12.6-21.8
			C422.5,186.929,415.6,183.429,409.7,184.029z"/>
	</g>
</g>
<g>
</g>
<g>
</g>
<g>
</g>
<g>
</g>
<g>
</g>
<g>
</g>
<g>
</g>
<g>
</g>
<g>
</g>
<g>
</g>
<g>
</g>
<g>
</g>
<g>
</g>
<g>
</g>
<g>
</g>
</svg>
